<?xml version="1.0"?>
<svg xmlns="http://www.w3.org/2000/svg" width="490mm" height="231mm" viewBox="0 0 490 231"><path fill="none" stroke="black" stroke-width="0.2" d="M 0,0 m 3,0 h 13.5 h 16.5 h 13.5 v 9.8333333333333 h 3 v 9.8333333333333 h -3 v 6.8333333333333 h -13.5 v 3 h -16.5 v -3 h -13.5 v -6.8333333333333 h -3 v -9.8333333333333 h 3 z"/><path fill="none" stroke="black" stroke-width="0.2" d="M 49.5,0 m 0,0 h 16.666666666667 h 16.666666666667 h 16.666666666667 v 9.8333333333333 h -3 v 9.8333333333333 h 3 v 6.8333333333333 h -16.666666666667 v 3 h -16.666666666667 v -3 h -16.666666666667 v -6.8333333333333 h 3 v -9.8333333333333 h -3 z"/><path fill="none" stroke="black" stroke-width="0.2" d="M 99.5,0 m 3,0 h 13.5 h 16.5 h 13.5 v 9.8333333333333 h 3 v 9.8333333333333 h -3 v 6.8333333333333 h -13.5 v 3 h -16.5 v -3 h -13.5 v -6.8333333333333 h -3 v -9.8333333333333 h 3 z"/><path fill="none" stroke="black" stroke-width="0.2" d="M 149,0 m 0,0 h 16.666666666667 h 16.666666666667 h 16.666666666667 v 9.8333333333333 h -3 v 9.8333333333333 h 3 v 6.8333333333333 h -16.666666666667 v 3 h -16.666666666667 v -3 h -16.666666666667 v -6.8333333333333 h 3 v -9.8333333333333 h -3 z"/><path fill="none" stroke="black" stroke-width="0.2" d="M 199,0 m 0,0 h 16.666666666667 h 16.666666666667 h 16.666666666667 v 9.8333333333333 h -3 v 9.8333333333333 h 3 v 6.8333333333333 h -16.666666666667 v 3 h -16.666666666667 v -3 h -16.666666666667 v -6.8333333333333 h 3 v -9.8333333333333 h -3 z"/><path fill="none" stroke="black" stroke-width="0.2" d="M 249,0 m 0,0 h 16.666666666667 h 16.666666666667 h 16.666666666667 v 9.8333333333333 h -3 v 9.8333333333333 h 3 v 6.8333333333333 h -16.666666666667 v 3 h -16.666666666667 v -3 h -16.666666666667 v -6.8333333333333 h 3 v -9.8333333333333 h -3 z"/><path fill="none" stroke="black" stroke-width="0.2" d="M 299,0 m 3,0 h 13.5 h 16.5 h 13.5 v 9.8333333333333 h 3 v 9.8333333333333 h -3 v 6.8333333333333 h -13.5 v 3 h -16.5 v -3 h -13.5 v -6.8333333333333 h -3 v -9.8333333333333 h 3 z"/><path fill="none" stroke="black" stroke-width="0.2" d="M 348.5,0 m 0,0 h 16.666666666667 h 16.666666666667 h 16.666666666667 v 9.8333333333333 h -3 v 9.8333333333333 h 3 v 6.8333333333333 h -16.666666666667 v 3 h -16.666666666667 v -3 h -16.666666666667 v -6.8333333333333 h 3 v -9.8333333333333 h -3 z"/><path fill="none" stroke="black" stroke-width="0.2" d="M 398.5,0 m 0,0 h 16.666666666667 h 16.666666666667 h 16.666666666667 v 9.8333333333333 h -3 v 9.8333333333333 h 3 v 6.8333333333333 h -16.666666666667 v 3 h -16.666666666667 v -3 h -16.666666666667 v -6.8333333333333 h 3 v -9.8333333333333 h -3 z"/><path fill="none" stroke="black" stroke-width="0.2" d="M 0,29.5 m 3,0 h 13.5 h 16.5 h 13.5 v 9.8333333333333 h 3 v 9.8333333333333 h -3 v 6.8333333333333 h -13.5 v 3 h -16.5 v -3 h -13.5 v -6.8333333333333 h -3 v -9.8333333333333 h 3 z"/><path fill="none" stroke="black" stroke-width="0.2" d="M 49.5,29.5 m 3,0 h 13.5 h 16.5 h 13.5 v 9.8333333333333 h 3 v 9.8333333333333 h -3 v 6.8333333333333 h -13.5 v 3 h -16.5 v -3 h -13.5 v -6.8333333333333 h -3 v -9.8333333333333 h 3 z"/><path fill="none" stroke="black" stroke-width="0.2" d="M 99,29.5 m 0,0 h 16.666666666667 h 16.666666666667 h 16.666666666667 v 9.8333333333333 h -3 v 9.8333333333333 h 3 v 6.8333333333333 h -16.666666666667 v 3 h -16.666666666667 v -3 h -16.666666666667 v -6.8333333333333 h 3 v -9.8333333333333 h -3 z"/><path fill="none" stroke="black" stroke-width="0.2" d="M 149,29.5 m 3,0 h 13.5 h 16.5 h 13.5 v 9.8333333333333 h 3 v 9.8333333333333 h -3 v 6.8333333333333 h -13.5 v 3 h -16.5 v -3 h -13.5 v -6.8333333333333 h -3 v -9.8333333333333 h 3 z"/><path fill="none" stroke="black" stroke-width="0.2" d="M 198.5,29.5 m 0,0 h 16.666666666667 h 16.666666666667 h 16.666666666667 v 9.8333333333333 h -3 v 9.8333333333333 h 3 v 6.8333333333333 h -16.666666666667 v 3 h -16.666666666667 v -3 h -16.666666666667 v -6.8333333333333 h 3 v -9.8333333333333 h -3 z"/><path fill="none" stroke="black" stroke-width="0.2" d="M 248.5,29.5 m 3,0 h 13.5 h 16.5 h 13.5 v 9.8333333333333 h 3 v 9.8333333333333 h -3 v 6.8333333333333 h -13.5 v 3 h -16.5 v -3 h -13.5 v -6.8333333333333 h -3 v -9.8333333333333 h 3 z"/><path fill="none" stroke="black" stroke-width="0.2" d="M 298,29.5 m 0,0 h 16.666666666667 h 16.666666666667 h 16.666666666667 v 9.8333333333333 h -3 v 9.8333333333333 h 3 v 6.8333333333333 h -16.666666666667 v 3 h -16.666666666667 v -3 h -16.666666666667 v -6.8333333333333 h 3 v -9.8333333333333 h -3 z"/><path fill="none" stroke="black" stroke-width="0.2" d="M 348,29.5 m 3,0 h 13.5 h 16.5 h 13.5 v 9.8333333333333 h 3 v 9.8333333333333 h -3 v 6.8333333333333 h -13.5 v 3 h -16.5 v -3 h -13.5 v -6.8333333333333 h -3 v -9.8333333333333 h 3 z"/><path fill="none" stroke="black" stroke-width="0.2" d="M 397.5,29.5 m 3,0 h 13.5 h 16.5 h 13.5 v 9.8333333333333 h 3 v 9.8333333333333 h -3 v 6.8333333333333 h -13.5 v 3 h -16.5 v -3 h -13.5 v -6.8333333333333 h -3 v -9.8333333333333 h 3 z"/><path fill="none" stroke="black" stroke-width="0.2" d="M 0,59 m 3,0 h 13.5 h 16.5 h 13.5 v 9.8333333333333 h 3 v 9.8333333333333 h -3 v 6.8333333333333 h -13.5 v 3 h -16.5 v -3 h -13.5 v -6.8333333333333 h -3 v -9.8333333333333 h 3 z"/><path fill="none" stroke="black" stroke-width="0.2" d="M 49.5,59 m 3,0 h 13.5 h 16.5 h 13.5 v 9.8333333333333 h 3 v 9.8333333333333 h -3 v 6.8333333333333 h -13.5 v 3 h -16.5 v -3 h -13.5 v -6.8333333333333 h -3 v -9.8333333333333 h 3 z"/><path fill="none" stroke="black" stroke-width="0.2" d="M 99,59 m 0,0 h 16.666666666667 h 16.666666666667 h 16.666666666667 v 9.8333333333333 h -3 v 9.8333333333333 h 3 v 6.8333333333333 h -16.666666666667 v 3 h -16.666666666667 v -3 h -16.666666666667 v -6.8333333333333 h 3 v -9.8333333333333 h -3 z"/><path fill="none" stroke="black" stroke-width="0.2" d="M 149,59 m 3,0 h 13.5 h 16.5 h 13.5 v 9.8333333333333 h 3 v 9.8333333333333 h -3 v 6.8333333333333 h -13.5 v 3 h -16.5 v -3 h -13.5 v -6.8333333333333 h -3 v -9.8333333333333 h 3 z"/><path fill="none" stroke="black" stroke-width="0.2" d="M 198.5,59 m 0,0 h 16.666666666667 h 16.666666666667 h 16.666666666667 v 9.8333333333333 h -3 v 9.8333333333333 h 3 v 6.8333333333333 h -16.666666666667 v 3 h -16.666666666667 v -3 h -16.666666666667 v -6.8333333333333 h 3 v -9.8333333333333 h -3 z"/><path fill="none" stroke="black" stroke-width="0.2" d="M 248.5,59 m 0,0 h 16.666666666667 h 16.666666666667 h 16.666666666667 v 9.8333333333333 h -3 v 9.8333333333333 h 3 v 6.8333333333333 h -16.666666666667 v 3 h -16.666666666667 v -3 h -16.666666666667 v -6.8333333333333 h 3 v -9.8333333333333 h -3 z"/><path fill="none" stroke="black" stroke-width="0.2" d="M 298.5,59 m 0,0 h 16.5 v 3 h 16.5 v -3 h 16.5 v 16.666666666667 h -3 v 16.666666666667 h 3 v 16.666666666667 h -16.5 v -3 h -16.5 v 3 h -16.5 v -16.666666666667 h 3 v -16.666666666667 h -3 z"/><path fill="none" stroke="black" stroke-width="0.2" d="M 348,59 m 0,0 h 16.5 v 3 h 16.5 v -3 h 16.5 v 16.666666666667 h -3 v 16.666666666667 h 3 v 16.666666666667 h -16.5 v -3 h -16.5 v 3 h -16.5 v -16.666666666667 h 3 v -16.666666666667 h -3 z"/><path fill="none" stroke="black" stroke-width="0.2" d="M 397.5,59 m 0,0 h 16.5 v 3 h 16.5 v -3 h 16.5 v 16.666666666667 h -3 v 16.666666666667 h 3 v 16.666666666667 h -16.5 v -3 h -16.5 v 3 h -16.5 v -16.666666666667 h 3 v -16.666666666667 h -3 z"/><path fill="none" stroke="black" stroke-width="0.2" d="M 0,109 m 0,0 h 16.5 v 3 h 16.5 v -3 h 16.5 v 16.666666666667 h -3 v 16.666666666667 h 3 v 16.666666666667 h -16.5 v -3 h -16.5 v 3 h -16.5 v -16.666666666667 h 3 v -16.666666666667 h -3 z"/><path fill="none" stroke="black" stroke-width="0.2" d="M 49.5,109 m 0,0 h 16.5 v 3 h 16.5 v -3 h 16.5 v 16.666666666667 h -3 v 16.666666666667 h 3 v 16.666666666667 h -16.5 v -3 h -16.5 v 3 h -16.5 v -16.666666666667 h 3 v -16.666666666667 h -3 z"/><path fill="none" stroke="black" stroke-width="0.2" d="M 99,109 m 0,0 h 16.5 v 3 h 16.5 v -3 h 16.5 v 16.666666666667 h -3 v 16.666666666667 h 3 v 16.666666666667 h -16.5 v -3 h -16.5 v 3 h -16.5 v -16.666666666667 h 3 v -16.666666666667 h -3 z"/><path fill="none" stroke="black" stroke-width="0.2" d="M 148.5,109 m 3,3 h 16.666666666667 v -3 h 16.666666666667 v 3 h 16.666666666667 h 3 h 16.666666666667 v -3 h 16.666666666667 v 3 h 16.666666666667 h 3 h 16.666666666667 v -3 h 16.666666666667 v 3 h 16.666666666667 v 16.666666666667 h 3 v 16.666666666667 h -3 v 16.666666666667 h -50 h -3 h -50 h -3 h -50 v -16.666666666667 h -3 v -16.666666666667 h 3 v -16.666666666667 z m -3,16.666666666667 m 53,0 h 3 v 16.666666666667 h -3 v -16.666666666667 z m 53,0 h 3 v 16.666666666667 h -3 v -16.666666666667 z"/><path fill="none" stroke="black" stroke-width="0.2" d="M 310.5,109 m 3,3 h 16.666666666667 v -3 h 16.666666666667 v 3 h 16.666666666667 h 3 h 16.666666666667 v -3 h 16.666666666667 v 3 h 16.666666666667 h 3 h 16.666666666667 v -3 h 16.666666666667 v 3 h 16.666666666667 v 16.666666666667 h 3 v 16.666666666667 h -3 v 16.666666666667 h -50 h -3 h -50 h -3 h -50 v -16.666666666667 h -3 v -16.666666666667 h 3 v -16.666666666667 z m -3,16.666666666667 m 53,0 h 3 v 16.666666666667 h -3 v -16.666666666667 z m 53,0 h 3 v 16.666666666667 h -3 v -16.666666666667 z"/><path fill="none" stroke="black" stroke-width="0.2" d="M 0,162 m 3,3 h 16.666666666667 v -3 h 16.666666666667 v 3 h 16.666666666667 v 25 h 3 v -25 h 16.666666666667 v -3 h 16.666666666667 v 3 h 16.666666666667 v 16.666666666667 h 3 v 16.666666666667 h -3 v 16.666666666667 h -50 h -3 h -50 v -16.666666666667 h -3 v -16.666666666667 h 3 v -16.666666666667 z"/><path fill="none" stroke="black" stroke-width="0.2" d="M 109,162 m 0,0 h 16.666666666667 v 3 h 16.666666666667 v -3 h 16.666666666667 v 3 v 10 h 3 v 10 h -3 v 10 v 3 v 10 h 3 v 10 h -3 v 10 v 3 h -16.666666666667 v -3 h -16.666666666667 v 3 h -16.666666666667 v -3 v -30 v 3 v -30 v 3 z m 16.666666666667,0 m 0,33 h 16.666666666667 v 3 h -16.666666666667 v -3 z"/><path fill="none" stroke="black" stroke-width="0.2" d="M 162,162 m 0,3 h 16.666666666667 v -3 h 16.666666666667 v 3 h 16.666666666667 v 10 h 3 v 10 h -3 v 10 v 3 v 10 h 3 v 10 h -3 v 10 h -16.666666666667 v 3 h -16.666666666667 v -3 h -16.666666666667 v -30 h 25 v -3 h -25 v -30 z"/><path fill="none" stroke="black" stroke-width="0.2" d="M 215,162 m 0,0 h 3 h 16.666666666667 v 3 h 16.666666666667 v -3 h 16.666666666667 h 3 h 16.666666666667 v 3 h 16.666666666667 v -3 h 16.666666666667 h 3 h 16.666666666667 v 3 h 16.666666666667 v -3 h 16.666666666667 h 3 v 3 v 10 h -3 v 10 h 3 v 10 v 3 v 10 h -3 v 10 h 3 v 10 v 3 h -3 h -16.666666666667 v -3 h -16.666666666667 v 3 h -16.666666666667 h -3 h -16.666666666667 v -3 h -16.666666666667 v 3 h -16.666666666667 h -3 h -16.666666666667 v -3 h -16.666666666667 v 3 h -16.666666666667 h -3 v -3 v -10 h 3 v -10 h -3 v -10 v -3 v -10 h 3 v -10 h -3 v -10 v -3 z m 0,13 m 53,0 h 3 v 10 h -3 v -10 z m 0,33 h 3 v 10 h -3 v -10 z m 0,-33 m 53,0 h 3 v 10 h -3 v -10 z m 0,33 h 3 v 10 h -3 v -10 z m 0,-33 m -106,-13 m 19.666666666667,0 m 0,33 v 3 h 16.666666666667 v -3 h -16.666666666667 z m 53,0 v 3 h 16.666666666667 v -3 h -16.666666666667 z m 53,0 v 3 h 16.666666666667 v -3 h -16.666666666667 z m -106,0 m -19.666666666667,-33"/><path fill="none" stroke="black" stroke-width="0.2" d="M 377,162 m 0,3 h 16.666666666667 v -3 h 16.666666666667 v 3 h 16.666666666667 v 10 h 3 v 10 h -3 v 10 v 3 v 10 h 3 v 10 h -3 v 10 h -16.666666666667 v 3 h -16.666666666667 v -3 h -16.666666666667 v -30 h 25 v -3 h -25 v -30 z"/><path fill="none" stroke="black" stroke-width="0.2" d="M 430,162 m 0,0 h 16.666666666667 v 3 h 16.666666666667 v -3 h 16.666666666667 v 3 v 10 h 3 v 10 h -3 v 10 v 3 v 10 h 3 v 10 h -3 v 10 v 3 h -16.666666666667 v -3 h -16.666666666667 v 3 h -16.666666666667 v -3 v -30 v 3 v -30 v 3 z m 16.666666666667,0 m 0,33 h 16.666666666667 v 3 h -16.666666666667 v -3 z"/></svg>
